<svg xmlns="http://www.w3.org/2000/svg" shape-rendering="crispEdges" viewBox="0 -0.5 26 32" width="26" height="32">
<metadata>Generated with pixel-perfect-svg https://github.com/kagof/pixel-perfect-svg</metadata>
  <path stroke="#000000" d="M9,0 h6 M8,1 h1 M15,1 h1 M7,2 h1 M16,2 h1 M7,3 h1 M17,3 h1 
    M7,4 h1 M17,4 h1 M6,5 h1 M18,5 h1 M6,6 h1 M18,6 h1 M6,7 h1 M19,7 h1 M5,8 h1 
    M19,8 h1 M5,9 h1 M20,9 h1 M5,10 h1 M20,10 h1 M4,11 h1 M21,11 h1 M4,12 h1 M21,12 h1 
    M4,13 h1 M22,13 h1 M3,14 h1 M22,14 h1 M3,15 h1 M23,15 h1 M3,16 h1 M23,16 h1 
    M2,17 h1 M24,17 h1 M2,18 h1 M24,18 h1 M2,19 h1 M25,19 h1 M1,20 h1 M25,20 h1 
    M1,21 h1 M25,21 h1 M1,22 h1 M25,22 h1 M0,23 h1 M25,23 h1 M0,24 h1 M24,24 h1 
    M0,25 h1 M24,25 h1 M0,26 h1 M23,26 h1 M1,27 h1 M22,27 h1 M1,28 h1 M20,28 h2 
    M2,29 h1 M18,29 h2 M3,30 h2 M15,30 h3 M5,31 h10"/>
  <path stroke="#e6445a" d="M9,1 h4 M8,2 h4 M8,3 h4 M8,4 h4 M7,5 h4 M7,6 h4 M7,7 h4 
    M6,8 h4 M6,9 h4 M6,10 h4 M5,11 h5 M5,12 h5 M5,13 h4 M4,14 h5 M4,15 h5 M4,16 h5 
    M3,17 h5 M3,18 h5 M3,19 h5 M2,20 h5 M2,21 h5 M2,22 h5"/>
  <path stroke="#c93045" d="M13,1 h2 M12,2 h1 M12,3 h1 M12,4 h1 M12,5 h1 M11,6 h1 
    M11,7 h1 M11,8 h1 M11,9 h1 M10,10 h1 M10,11 h1 M10,12 h1 M10,13 h1 M9,14 h1 
    M9,15 h1 M9,16 h1 M9,17 h1 M8,18 h1 M8,19 h1 M8,20 h1 M7,21 h1 M7,22 h1"/>
  <path stroke="#d3394e" d="M13,2 h3 M13,3 h4 M13,4 h4 M11,5 h1 M13,5 h5 M12,6 h6 
    M12,7 h7 M10,8 h1 M12,8 h7 M10,9 h1 M12,9 h8 M11,10 h9 M11,11 h10 M11,12 h10 
    M9,13 h1 M11,13 h11 M10,14 h12 M10,15 h13 M10,16 h10 M21,16 h2 M8,17 h1 M10,17 h10 
    M21,17 h3 M9,18 h2 M12,18 h5 M18,18 h2 M21,18 h3 M9,19 h2 M12,19 h2 M15,19 h2 
    M18,19 h6 M7,20 h1 M9,20 h1 M12,20 h2 M15,20 h2 M19,20 h5 M8,21 h6 M16,21 h7 
    M8,22 h14 M1,23 h20 M8,24 h11 M10,25 h6"/>
  <path stroke="#a62a3b" d="M20,16 h1 M11,18 h1 M17,18 h1 M14,19 h1"/>
  <path stroke="#57131d" d="M20,17 h1 M20,18 h1 M11,19 h1 M17,19 h1 M10,20 h2 M14,20 h1 
    M17,20 h2 M14,21 h2"/>
  <path stroke="#7cb37c" d="M24,19 h1 M24,20 h1 M23,21 h1 M22,22 h1 M21,23 h1 M6,24 h2 
    M19,24 h1 M6,25 h1 M8,25 h2 M16,25 h1 M6,26 h1 M2,27 h1 M4,27 h1 M7,27 h1 M21,27 h1 
    M2,28 h6 M19,28 h1 M3,29 h4 M8,29 h1 M10,29 h1 M16,29 h2 M5,30 h3 M9,30 h1 
    M11,30 h1 M13,30 h1"/>
  <path stroke="#5b995b" d="M24,21 h1 M23,22 h2 M22,23 h3 M20,24 h4 M7,25 h1 M17,25 h7 
    M7,26 h16 M8,27 h13 M8,28 h11 M7,29 h1 M9,29 h1 M11,29 h5 M8,30 h1 M10,30 h1 
    M12,30 h1 M14,30 h1"/>
  <path stroke="#8dcb8d" d="M1,24 h5 M1,25 h5 M1,26 h5 M3,27 h1 M5,27 h2"/>
</svg>
